<?xml version="1.0" encoding="iso-8859-1"?>
<!-- Generator: Adobe Illustrator 18.0.0, SVG Export Plug-In . SVG Version: 6.00 Build 0)  -->
<!DOCTYPE svg PUBLIC "-//W3C//DTD SVG 1.1//EN" "http://www.w3.org/Graphics/SVG/1.1/DTD/svg11.dtd">
<svg version="1.1" id="Capa_1" xmlns="http://www.w3.org/2000/svg" xmlns:xlink="http://www.w3.org/1999/xlink" x="0px" y="0px"
	 viewBox="0 0 463.304 463.304" style="enable-background:new 0 0 463.304 463.304;" xml:space="preserve">
<g>
	<linearGradient id="SVGID_1_" gradientUnits="userSpaceOnUse" x1="330.9555" y1="394.1143" x2="356.5656" y2="394.1143">
		<stop  offset="0" style="stop-color:#EDCF24"/>
		<stop  offset="0.1977" style="stop-color:#EECD24"/>
		<stop  offset="0.3139" style="stop-color:#EFC422"/>
		<stop  offset="0.4091" style="stop-color:#F3B61F"/>
		<stop  offset="0.4928" style="stop-color:#F7A21B"/>
		<stop  offset="0.5683" style="stop-color:#FD8817"/>
		<stop  offset="0.5886" style="stop-color:#FF8015"/>
		<stop  offset="0.6698" style="stop-color:#FB7E15"/>
		<stop  offset="0.7486" style="stop-color:#EF7814"/>
		<stop  offset="0.8264" style="stop-color:#DC6E12"/>
		<stop  offset="0.9037" style="stop-color:#C16110"/>
		<stop  offset="0.9799" style="stop-color:#9E4F0D"/>
		<stop  offset="1" style="stop-color:#934A0C"/>
	</linearGradient>
	<polygon style="fill:url(#SVGID_1_);" points="356.566,399.384 355.856,400.814 331.336,391.584 330.956,387.414 	"/>
	<linearGradient id="SVGID_2_" gradientUnits="userSpaceOnUse" x1="264.2956" y1="425.3643" x2="289.9055" y2="425.3643">
		<stop  offset="0" style="stop-color:#EDCF24"/>
		<stop  offset="0.1977" style="stop-color:#EECD24"/>
		<stop  offset="0.3139" style="stop-color:#EFC422"/>
		<stop  offset="0.4091" style="stop-color:#F3B61F"/>
		<stop  offset="0.4928" style="stop-color:#F7A21B"/>
		<stop  offset="0.5683" style="stop-color:#FD8817"/>
		<stop  offset="0.5886" style="stop-color:#FF8015"/>
		<stop  offset="0.6698" style="stop-color:#FB7E15"/>
		<stop  offset="0.7486" style="stop-color:#EF7814"/>
		<stop  offset="0.8264" style="stop-color:#DC6E12"/>
		<stop  offset="0.9037" style="stop-color:#C16110"/>
		<stop  offset="0.9799" style="stop-color:#9E4F0D"/>
		<stop  offset="1" style="stop-color:#934A0C"/>
	</linearGradient>
	<polygon style="fill:url(#SVGID_2_);" points="289.906,430.634 289.186,432.064 264.666,422.834 264.296,418.664 	"/>
	<linearGradient id="SVGID_3_" gradientUnits="userSpaceOnUse" x1="390.8039" y1="354.826" x2="316.1789" y2="280.201">
		<stop  offset="0" style="stop-color:#FFFFFF"/>
		<stop  offset="0.1494" style="stop-color:#F8F8F8"/>
		<stop  offset="0.3739" style="stop-color:#E3E3E3"/>
		<stop  offset="0.6455" style="stop-color:#C1C1C1"/>
		<stop  offset="0.9515" style="stop-color:#939393"/>
		<stop  offset="1" style="stop-color:#8B8B8B"/>
	</linearGradient>
	<path style="fill:url(#SVGID_3_);" d="M401.826,339.374l-10.85-1.4c-0.18-0.02-0.35-0.03-0.52-0.03c-1.51,0-2.91,0.85-3.59,2.23
		c-0.75,1.54-0.45,3.38,0.76,4.59l6.62,6.62c-11.52-5.71-24.43-8.05-37.19-6.6c-16.16,1.82-27.54,3.64-33.95,5.43
		c-7.28-16.91-7.22-42.23,0.16-77.1c20.64,18.54,72.24,38.37,95.14,46.59c1.23,0.44,1.78,1.6,1.78,2.54c0,0.39-0.07,0.76-0.23,1.1
		c-0.01,0.03-0.03,0.07-0.04,0.11l-0.03,0.05c-0.01,0.02-0.02,0.04-0.04,0.06c-0.64,1.19-2.08,1.71-3.35,1.22l-40.57-15.73
		c-2.06-0.8-4.38,0.22-5.18,2.28c-0.8,2.06,0.23,4.37,2.29,5.17l16.65,6.47l1.53,6.72c0.95,4.21,3.95,7.58,8.02,9.01
		c0.86,0.3,1.72,0.51,2.6,0.62L401.826,339.374z"/>
	<linearGradient id="SVGID_4_" gradientUnits="userSpaceOnUse" x1="398.6855" y1="328.9454" x2="407.0855" y2="328.9454">
		<stop  offset="0" style="stop-color:#FFFFFF"/>
		<stop  offset="0.0769" style="stop-color:#F4F4F4"/>
		<stop  offset="0.5081" style="stop-color:#BCBCBC"/>
		<stop  offset="0.8284" style="stop-color:#989898"/>
		<stop  offset="1" style="stop-color:#8B8B8B"/>
	</linearGradient>
	<path style="fill:url(#SVGID_4_);" d="M407.086,329.724l-0.92,0.72c-1.23,0.98-2.79,1.24-4.27,0.72c-1.48-0.53-2.53-1.71-2.88-3.24
		l-0.33-1.46L407.086,329.724z"/>
	<linearGradient id="SVGID_5_" gradientUnits="userSpaceOnUse" x1="401.8256" y1="341.1743" x2="441.0723" y2="341.1743">
		<stop  offset="0" style="stop-color:#EDCF24"/>
		<stop  offset="0.1977" style="stop-color:#EECD24"/>
		<stop  offset="0.3139" style="stop-color:#EFC422"/>
		<stop  offset="0.4091" style="stop-color:#F3B61F"/>
		<stop  offset="0.4928" style="stop-color:#F7A21B"/>
		<stop  offset="0.5683" style="stop-color:#FD8817"/>
		<stop  offset="0.5886" style="stop-color:#FF8015"/>
		<stop  offset="0.6698" style="stop-color:#FB7E15"/>
		<stop  offset="0.7486" style="stop-color:#EF7814"/>
		<stop  offset="0.8264" style="stop-color:#DC6E12"/>
		<stop  offset="0.9037" style="stop-color:#C16110"/>
		<stop  offset="0.9799" style="stop-color:#9E4F0D"/>
		<stop  offset="1" style="stop-color:#934A0C"/>
	</linearGradient>
	<path style="fill:url(#SVGID_5_);" d="M403.406,339.424c2.76,0,5.48-0.93,7.73-2.7l4.89-3.88c3.05,0.42,6.13-0.49,8.43-2.46
		l13.11,6.07c1.87,0.86,3.12,2.52,3.43,4.55c0.32,2.04-0.37,3.99-1.89,5.38l-6.13,5.58c-0.39-1.09-0.9-2.14-1.54-3.14
		c-2.49-3.9-6.55-6.47-11.13-7.06l-18.48-2.39l0.01-0.05C402.356,339.394,402.876,339.424,403.406,339.424z"/>
	<linearGradient id="SVGID_6_" gradientUnits="userSpaceOnUse" x1="320.2856" y1="388.4643" x2="320.2856" y2="356.7443">
		<stop  offset="0" style="stop-color:#FFFFFF"/>
		<stop  offset="0.0263" style="stop-color:#F9F9F9"/>
		<stop  offset="0.3793" style="stop-color:#ABABAB"/>
		<stop  offset="0.6704" style="stop-color:#727272"/>
		<stop  offset="0.8851" style="stop-color:#4E4E4E"/>
		<stop  offset="1" style="stop-color:#414141"/>
	</linearGradient>
	<path style="fill:url(#SVGID_6_);" d="M341.246,371.854l-15.62,1.61c-2.18,0.22-3.77,2.16-3.57,4.34l0.93,10.27l-13.94-6.08
		c-1.55-0.68-3.36-0.3-4.51,0.93l-5.21,5.54l1.22-19.59c8.97-3.06,15.28-6.15,18.94-8.17c3.32-1.83,6.87-3.17,10.59-3.94l0.11-0.02
		C332.996,362.404,336.726,367.504,341.246,371.854z"/>
	<linearGradient id="SVGID_7_" gradientUnits="userSpaceOnUse" x1="251.1006" y1="419.7243" x2="251.1006" y2="300.1543">
		<stop  offset="0" style="stop-color:#FFFFFF"/>
		<stop  offset="0.0495" style="stop-color:#E9E9E9"/>
		<stop  offset="0.2012" style="stop-color:#ACACAC"/>
		<stop  offset="0.3519" style="stop-color:#787878"/>
		<stop  offset="0.498" style="stop-color:#4D4D4D"/>
		<stop  offset="0.6385" style="stop-color:#2B2B2B"/>
		<stop  offset="0.7721" style="stop-color:#131313"/>
		<stop  offset="0.8958" style="stop-color:#050505"/>
		<stop  offset="1" style="stop-color:#000000"/>
	</linearGradient>
	<path style="fill:url(#SVGID_7_);" d="M310.676,301.154c-2.22,21.99-0.5,39.33,5.17,52.42c-3.52,1.96-10.29,5.31-20.35,8.56
		c-9.12,2.93-19,5.14-29.43,6.6l-2.82-20.16c-0.3-2.18-2.32-3.7-4.51-3.4c-2.19,0.3-3.71,2.32-3.41,4.51l3.02,21.58
		c1.7,12.22,7.48,23.41,16.24,31.84l-15.62,1.6c-2.18,0.23-3.77,2.16-3.58,4.34l0.93,10.28l-13.93-6.08
		c-1.55-0.67-3.36-0.3-4.52,0.93l-5.2,5.55l3.62-58.55c0.13-2.2-1.54-4.1-3.75-4.24c-2.21-0.16-4.1,1.54-4.24,3.75l-0.61,9.97
		c-13.27-0.41-27.12-1.9-41.33-4.42c27.43-18.26,51.08-33.19,57.73-37.37c0.74,1.66,1.92,3.13,3.5,4.21
		c3.22,2.2,7.32,2.35,10.69,0.38l1.74-1.01c1.15,1.51,2.73,2.69,4.61,3.36c1.1,0.4,2.25,0.59,3.38,0.59c2.78,0,5.48-1.16,7.42-3.31
		l29.69-32.93C306.896,300.574,308.746,300.914,310.676,301.154z"/>
	<linearGradient id="SVGID_8_" gradientUnits="userSpaceOnUse" x1="153.3055" y1="347.4093" x2="230.3255" y2="347.4093">
		<stop  offset="0" style="stop-color:#616161"/>
		<stop  offset="0.1285" style="stop-color:#4C4C4C"/>
		<stop  offset="0.3712" style="stop-color:#2B2B2B"/>
		<stop  offset="0.6034" style="stop-color:#131313"/>
		<stop  offset="0.8185" style="stop-color:#050505"/>
		<stop  offset="1" style="stop-color:#000000"/>
	</linearGradient>
	<path style="fill:url(#SVGID_8_);" d="M228.986,326.834c0.41,0.48,0.87,0.89,1.34,1.27c-13.9,8.84-38.76,24.83-64.69,42.42
		c-4.78-1.34-8.86-3.38-12.33-5.86l74.06-40.37C227.766,325.194,228.306,326.054,228.986,326.834z"/>
	<linearGradient id="SVGID_9_" gradientUnits="userSpaceOnUse" x1="141.3555" y1="337.7693" x2="217.1855" y2="337.7693">
		<stop  offset="0" style="stop-color:#616161"/>
		<stop  offset="0.1285" style="stop-color:#4C4C4C"/>
		<stop  offset="0.3712" style="stop-color:#2B2B2B"/>
		<stop  offset="0.6034" style="stop-color:#131313"/>
		<stop  offset="0.8185" style="stop-color:#050505"/>
		<stop  offset="1" style="stop-color:#000000"/>
	</linearGradient>
	<path style="fill:url(#SVGID_9_);" d="M217.186,320.734l-70.24,38.29c-2.21-2.4-4.06-4.95-5.59-7.49l72.01-35.02
		c0.44,0.9,1.02,1.75,1.74,2.52C215.736,319.704,216.436,320.274,217.186,320.734z"/>
	<linearGradient id="SVGID_10_" gradientUnits="userSpaceOnUse" x1="134.7256" y1="327.0143" x2="202.6255" y2="327.0143">
		<stop  offset="0" style="stop-color:#616161"/>
		<stop  offset="0.1285" style="stop-color:#4C4C4C"/>
		<stop  offset="0.3712" style="stop-color:#2B2B2B"/>
		<stop  offset="0.6034" style="stop-color:#131313"/>
		<stop  offset="0.8185" style="stop-color:#050505"/>
		<stop  offset="1" style="stop-color:#000000"/>
	</linearGradient>
	<path style="fill:url(#SVGID_10_);" d="M202.626,312.834l-64.9,31.57c-1.53-3.62-2.46-6.82-3-9.03l63.84-25.75
		c0.02,0.02,0.03,0.04,0.05,0.06C199.706,311.114,201.086,312.174,202.626,312.834z"/>
	<linearGradient id="SVGID_11_" gradientUnits="userSpaceOnUse" x1="61.1755" y1="397.3893" x2="157.4355" y2="397.3893">
		<stop  offset="0" style="stop-color:#FFFFFF"/>
		<stop  offset="0.0495" style="stop-color:#E9E9E9"/>
		<stop  offset="0.2012" style="stop-color:#ACACAC"/>
		<stop  offset="0.3519" style="stop-color:#787878"/>
		<stop  offset="0.498" style="stop-color:#4D4D4D"/>
		<stop  offset="0.6385" style="stop-color:#2B2B2B"/>
		<stop  offset="0.7721" style="stop-color:#131313"/>
		<stop  offset="0.8958" style="stop-color:#050505"/>
		<stop  offset="1" style="stop-color:#000000"/>
	</linearGradient>
	<path style="fill:url(#SVGID_11_);" d="M145.626,368.854c3.35,2.82,7.26,5.32,11.81,7.26c-25.3,17.36-50.62,35.66-66.86,49.81
		c-10.87-1.62-20.74-5.78-29.4-11.03L145.626,368.854z"/>
	<linearGradient id="SVGID_12_" gradientUnits="userSpaceOnUse" x1="41.8155" y1="382.4543" x2="139.7256" y2="382.4543">
		<stop  offset="0" style="stop-color:#FFFFFF"/>
		<stop  offset="0.0495" style="stop-color:#E9E9E9"/>
		<stop  offset="0.2012" style="stop-color:#ACACAC"/>
		<stop  offset="0.3519" style="stop-color:#787878"/>
		<stop  offset="0.498" style="stop-color:#4D4D4D"/>
		<stop  offset="0.6385" style="stop-color:#2B2B2B"/>
		<stop  offset="0.7721" style="stop-color:#131313"/>
		<stop  offset="0.8958" style="stop-color:#050505"/>
		<stop  offset="1" style="stop-color:#000000"/>
	</linearGradient>
	<path style="fill:url(#SVGID_12_);" d="M139.726,362.954l-86.05,46.92c-4.35-3.19-8.32-6.58-11.86-9.94l92.33-44.9
		C135.696,357.694,137.546,360.374,139.726,362.954z"/>
	<linearGradient id="SVGID_13_" gradientUnits="userSpaceOnUse" x1="24.3255" y1="366.1643" x2="130.5356" y2="366.1643">
		<stop  offset="0" style="stop-color:#FFFFFF"/>
		<stop  offset="0.0495" style="stop-color:#E9E9E9"/>
		<stop  offset="0.2012" style="stop-color:#ACACAC"/>
		<stop  offset="0.3519" style="stop-color:#787878"/>
		<stop  offset="0.498" style="stop-color:#4D4D4D"/>
		<stop  offset="0.6385" style="stop-color:#2B2B2B"/>
		<stop  offset="0.7721" style="stop-color:#131313"/>
		<stop  offset="0.8958" style="stop-color:#050505"/>
		<stop  offset="1" style="stop-color:#000000"/>
	</linearGradient>
	<path style="fill:url(#SVGID_13_);" d="M130.536,347.894l-94.68,46.04c-5.24-5.62-9.16-10.71-11.53-14.03l102.92-41.51
		C127.916,340.924,128.956,344.234,130.536,347.894z"/>
	<linearGradient id="SVGID_14_" gradientUnits="userSpaceOnUse" x1="183.5555" y1="138.9943" x2="245.5455" y2="138.9943">
		<stop  offset="0" style="stop-color:#797979"/>
		<stop  offset="0.0091" style="stop-color:#777777"/>
		<stop  offset="0.2307" style="stop-color:#4D4D4D"/>
		<stop  offset="0.4459" style="stop-color:#2B2B2B"/>
		<stop  offset="0.6506" style="stop-color:#131313"/>
		<stop  offset="0.8401" style="stop-color:#050505"/>
		<stop  offset="1" style="stop-color:#000000"/>
	</linearGradient>
	<path style="fill:url(#SVGID_14_);" d="M245.546,157.274l-45.63-21.1c-5.89-5.04-11.43-10.28-16.36-15.46
		c18.63,11.74,37.35,20.56,40.66,22.1C231.066,148.114,238.186,152.944,245.546,157.274z"/>
	<linearGradient id="SVGID_15_" gradientUnits="userSpaceOnUse" x1="327.1555" y1="243.4593" x2="382.81" y2="243.4593">
		<stop  offset="0" style="stop-color:#EDCF24"/>
		<stop  offset="0.1977" style="stop-color:#EECD24"/>
		<stop  offset="0.3139" style="stop-color:#EFC422"/>
		<stop  offset="0.4091" style="stop-color:#F3B61F"/>
		<stop  offset="0.4928" style="stop-color:#F7A21B"/>
		<stop  offset="0.5683" style="stop-color:#FD8817"/>
		<stop  offset="0.5886" style="stop-color:#FF8015"/>
		<stop  offset="0.6698" style="stop-color:#FB7E15"/>
		<stop  offset="0.7486" style="stop-color:#EF7814"/>
		<stop  offset="0.8264" style="stop-color:#DC6E12"/>
		<stop  offset="0.9037" style="stop-color:#C16110"/>
		<stop  offset="0.9799" style="stop-color:#9E4F0D"/>
		<stop  offset="1" style="stop-color:#934A0C"/>
	</linearGradient>
	<path style="fill:url(#SVGID_15_);" d="M382.416,213.224c0.81,5.11,0.38,10.4-1.36,15.44c-3.17,9.15-10.2,16.28-19.32,19.58
		l-1.07,0.39c-11.56,4.19-20.12,13.52-23.44,25.06c-4.82-3.28-7.99-5.93-10.07-7.95c0.81-4.9,2.28-9.54,4.31-13.5
		c4.83-9.43,13.65-12.21,22.98-15.16c5.99-1.89,12.18-3.85,17.42-7.65C377.736,225.184,380.816,219.054,382.416,213.224z"/>
	<linearGradient id="SVGID_16_" gradientUnits="userSpaceOnUse" x1="271.3746" y1="241.9343" x2="311.9756" y2="241.9343">
		<stop  offset="0" style="stop-color:#EDCF24"/>
		<stop  offset="0.1977" style="stop-color:#EECD24"/>
		<stop  offset="0.3139" style="stop-color:#EFC422"/>
		<stop  offset="0.4091" style="stop-color:#F3B61F"/>
		<stop  offset="0.4928" style="stop-color:#F7A21B"/>
		<stop  offset="0.5683" style="stop-color:#FD8817"/>
		<stop  offset="0.5886" style="stop-color:#FF8015"/>
		<stop  offset="0.6698" style="stop-color:#FB7E15"/>
		<stop  offset="0.7486" style="stop-color:#EF7814"/>
		<stop  offset="0.8264" style="stop-color:#DC6E12"/>
		<stop  offset="0.9037" style="stop-color:#C16110"/>
		<stop  offset="0.9799" style="stop-color:#9E4F0D"/>
		<stop  offset="1" style="stop-color:#934A0C"/>
	</linearGradient>
	<path style="fill:url(#SVGID_16_);" d="M311.976,290.674c-0.12,0.85-0.24,1.7-0.36,2.53c-24.85-3.16-38.38-25.94-40.1-41.97
		c-1.13-10.53,4.72-17.69,10.91-25.27c3.97-4.86,8.08-9.89,10.38-15.93c2.58-6.78,1.79-13.61-0.08-19.37
		c3.49,3.83,6.03,8.5,7.34,13.68c2.37,9.39,0.4,19.21-5.41,26.95l-0.7,0.93c-7.68,10.24-9.66,23.55-5.3,35.58
		C292.596,278.674,301.176,286.994,311.976,290.674z"/>
	<linearGradient id="SVGID_17_" gradientUnits="userSpaceOnUse" x1="169.7426" y1="125.5004" x2="382.8014" y2="178.6219">
		<stop  offset="0" style="stop-color:#FFFFFF"/>
		<stop  offset="0.0415" style="stop-color:#E9E9E9"/>
		<stop  offset="0.1686" style="stop-color:#ACACAC"/>
		<stop  offset="0.295" style="stop-color:#787878"/>
		<stop  offset="0.4174" style="stop-color:#4D4D4D"/>
		<stop  offset="0.5352" style="stop-color:#2B2B2B"/>
		<stop  offset="0.6472" style="stop-color:#131313"/>
		<stop  offset="0.7509" style="stop-color:#050505"/>
		<stop  offset="0.8382" style="stop-color:#000000"/>
		<stop  offset="0.8615" style="stop-color:#030303"/>
		<stop  offset="0.8805" style="stop-color:#0D0D0D"/>
		<stop  offset="0.898" style="stop-color:#1F1F1F"/>
		<stop  offset="0.9147" style="stop-color:#373737"/>
		<stop  offset="0.9307" style="stop-color:#565656"/>
		<stop  offset="0.9463" style="stop-color:#7C7C7C"/>
		<stop  offset="0.9615" style="stop-color:#AAAAAA"/>
		<stop  offset="0.976" style="stop-color:#DDDDDD"/>
		<stop  offset="0.9846" style="stop-color:#FFFFFF"/>
	</linearGradient>
	<path style="fill:url(#SVGID_17_);" d="M375.936,198.094c0.23,3.61,0.51,18.15-8.76,24.87c-4.19,3.03-9.51,4.71-15.14,6.49
		c-10,3.16-21.33,6.74-27.69,19.14c-1.91,3.74-3.4,7.97-4.4,12.42c-1.41,0.39-2.5,1.51-2.83,2.94c-1.52,6.52-2.79,12.74-3.84,18.68
		c-9.6-3.77-16.75-12.3-18.52-23.04c-1.34-8.09,0.94-16.36,5.87-22.92c6.79-9.06,9.81-20.53,7.77-31.67
		c-2.38-12.91-10.72-23.62-22.51-29.07l-11.89-5.5c1.31-0.23,2.49-1.11,3.02-2.44c0.83-2.05-0.17-4.38-2.22-5.21
		c-43.81-17.63-75.95-50.7-94.44-79.85c21.52,18.28,41.47,32.05,43.75,33.61c11.92,12.14,26.72,24.49,44.24,34.04
		c0.61,0.33,1.27,0.49,1.91,0.49c1.42,0,2.79-0.76,3.52-2.09c1.05-1.94,0.34-4.37-1.6-5.43c-39.47-21.5-67.24-58.99-81.9-86.61
		c19.6,21.02,39.32,36.48,43.06,39.35c10.18,11.31,22.74,22.42,38.25,32.35c0.67,0.43,1.42,0.63,2.16,0.63
		c1.31,0,2.61-0.65,3.37-1.84c1.19-1.86,0.65-4.34-1.21-5.53c-23.44-15-42.47-34.57-56.58-58.17
		c-6.81-11.39-11.42-22.03-14.48-30.65c17.35,19.76,37.66,39.93,40,42.23c8.62,11.94,18.8,23.38,30.27,33.99
		c1.82,1.69,4.79,1.35,6.16-0.89c0.99-1.64,0.59-3.76-0.82-5.06c-11.13-10.31-21-21.41-29.33-32.99
		c-13.66-18.99-20.89-36.12-24.54-47.14c-0.63-1.88-1.17-3.66-1.65-5.31l80.92,90.67c1.36,1.53,3.71,1.81,5.44,0.49
		c1.07-0.81,1.59-2.14,1.53-3.47l-0.44-9.4L375.936,198.094z"/>
	<linearGradient id="SVGID_18_" gradientUnits="userSpaceOnUse" x1="91.9428" y1="261.0262" x2="266.8952" y2="160.0174">
		<stop  offset="0" style="stop-color:#FFFFFF"/>
		<stop  offset="0.0415" style="stop-color:#E9E9E9"/>
		<stop  offset="0.1686" style="stop-color:#ACACAC"/>
		<stop  offset="0.295" style="stop-color:#787878"/>
		<stop  offset="0.4174" style="stop-color:#4D4D4D"/>
		<stop  offset="0.5352" style="stop-color:#2B2B2B"/>
		<stop  offset="0.6472" style="stop-color:#131313"/>
		<stop  offset="0.7509" style="stop-color:#050505"/>
		<stop  offset="0.8382" style="stop-color:#000000"/>
		<stop  offset="0.8615" style="stop-color:#030303"/>
		<stop  offset="0.8805" style="stop-color:#0D0D0D"/>
		<stop  offset="0.898" style="stop-color:#1F1F1F"/>
		<stop  offset="0.9147" style="stop-color:#373737"/>
		<stop  offset="0.9307" style="stop-color:#565656"/>
		<stop  offset="0.9463" style="stop-color:#7C7C7C"/>
		<stop  offset="0.9615" style="stop-color:#AAAAAA"/>
		<stop  offset="0.976" style="stop-color:#DDDDDD"/>
		<stop  offset="0.9846" style="stop-color:#FFFFFF"/>
	</linearGradient>
	<path style="fill:url(#SVGID_18_);" d="M296.816,297.414l-27.33,30.31c-0.82,0.91-1.79,0.68-2.17,0.55
		c-0.39-0.14-1.28-0.59-1.34-1.8c-0.06-1.4-0.85-2.66-2.08-3.33c-1.23-0.66-2.72-0.64-3.93,0.06l-5.72,3.34
		c-0.99,0.58-1.83,0.14-2.15-0.08c-0.32-0.21-1.03-0.84-0.85-1.97l0.11-0.68c0.21-1.37-0.29-2.75-1.34-3.65s-2.49-1.2-3.81-0.79
		l-9.05,2.83c-1.14,0.35-1.86-0.31-2.12-0.61c-0.26-0.3-0.81-1.11-0.29-2.18l1.68-3.53c0.72-1.51,0.43-3.31-0.74-4.51
		c-1.16-1.2-2.95-1.55-4.48-0.87l-7.99,3.52c-1.17,0.52-1.98-0.15-2.28-0.46c-0.29-0.32-0.91-1.16-0.32-2.31l1.86-3.58
		c0.75-1.45,0.55-3.2-0.51-4.44c-1.05-1.24-2.76-1.71-4.3-1.2l-10.46,3.49c-1.23,0.41-1.97-0.35-2.24-0.69
		c-0.26-0.35-0.79-1.26-0.07-2.34l4.17-6.25c0.92-1.39,0.89-3.21-0.09-4.57c-0.99-1.35-2.71-1.95-4.32-1.5l-11.62,3.24
		c-1.28,0.36-1.98-0.47-2.22-0.84c-0.25-0.37-0.72-1.34,0.12-2.37l3.32-4.07c1.06-1.31,1.19-3.14,0.33-4.58
		c-0.87-1.45-2.55-2.19-4.2-1.87l-12.16,2.37c-1.25,0.24-1.9-0.58-2.12-0.94c-0.21-0.36-0.64-1.32,0.17-2.31l4.78-5.86
		c1.06-1.3,1.2-3.12,0.35-4.56s-2.51-2.2-4.16-1.91l-13.54,2.43c-1.17,0.21-1.81-0.53-2.03-0.86s-0.66-1.2-0.02-2.2l2.82-4.41
		c2.29-0.54,4.6-1.12,6.94-1.74c21.84-5.74,37.34-12.41,37.99-12.69c2.03-0.88,2.96-3.24,2.08-5.26c-0.88-2.03-3.23-2.96-5.26-2.09
		c-0.51,0.23-43.51,18.61-85.38,19.93c10.38-3.65,19.76-7.64,22.09-8.64c18.22-1.69,35.72-5.78,50.03-13.08
		c1.97-1,2.75-3.41,1.75-5.38s-3.41-2.75-5.38-1.75c-18.53,9.45-50.94,15.74-88.07,12.3c14.47-2.51,23.08-5.88,25.56-6.95
		c0.26,0,0.52,0.01,0.78,0.01c19.47,0,39.93-2.39,59.18-8.39c2.11-0.66,3.28-2.9,2.63-5.01c-0.66-2.11-2.9-3.29-5.01-2.63
		c-37.49,11.69-79.57,9.17-108.95,2.22c22.21-0.38,42.93-3.3,46.43-3.82c5.36,0.43,10.72,0.67,16.05,0.67
		c13.05-0.01,25.98-1.28,38.72-3.83c2.17-0.43,3.57-2.54,3.14-4.7c-0.43-2.17-2.54-3.58-4.71-3.14
		c-46.31,9.26-91.32-0.79-122.75-15.04c27.93,3.48,52.12,4.08,54.99,4.14c12.84,2.8,27.19,4.76,42.23,4.76
		c4.43,0,8.92-0.17,13.45-0.54c2.2-0.17,3.84-2.1,3.66-4.31c-0.18-2.2-2.12-3.84-4.31-3.66c-44.8,3.65-88.58-12.5-115.97-27.57
		c27.85,6.83,52.75,8.96,57.54,9.32c14.16,3.74,30.08,6.11,47.67,6.11c0.7,0,1.4,0,2.1-0.01c2.21-0.02,3.98-1.84,3.95-4.04
		c-0.02-2.2-1.81-3.96-3.99-3.96c-0.02,0-0.03,0-0.05,0c-27.8,0.29-54.46-5.64-79.2-17.65c-11.94-5.8-21.62-12.18-28.91-17.71
		c24.8,6.87,52.19,12.51,56.36,13.36c12.67,4.85,27.35,9.06,44.19,11.89c2.17,0.37,4.24-1.1,4.6-3.28c0.37-2.18-1.1-4.24-3.28-4.61
		c-37.48-6.31-63.7-19.92-79.09-30.23c-5.81-3.89-10.56-7.62-14.28-10.83l117.37,31.51c1.91,0.52,3.96-0.45,4.75-2.38
		c0.53-1.31,0.26-2.81-0.56-3.96l-5.52-7.61l104.38,48.28c3.4,1.57,6.24,4.18,8.01,7.49c2.81,5.22,5.65,13.04,2.9,20.25
		c-1.84,4.83-5.36,9.15-9.1,13.72c-6.63,8.12-14.15,17.33-12.66,31.18c1.21,11.3,6.58,22.96,14.74,31.98
		C282.476,288.674,288.576,293.884,296.816,297.414z"/>
	<path d="M251.246,324.494c-0.18,1.13,0.53,1.76,0.85,1.97c0.32,0.22,1.16,0.66,2.15,0.08l5.72-3.34c1.21-0.7,2.7-0.72,3.93-0.06
		c1.23,0.67,2.02,1.93,2.08,3.33c0.06,1.21,0.95,1.66,1.34,1.8c0.38,0.13,1.35,0.36,2.17-0.55l27.33-30.31
		c-8.24-3.53-14.34-8.74-18.51-13.35c-8.16-9.02-13.53-20.68-14.74-31.98c-1.49-13.85,6.03-23.06,12.66-31.18
		c3.74-4.57,7.26-8.89,9.1-13.72c2.75-7.21-0.09-15.03-2.9-20.25c-1.77-3.31-4.61-5.92-8.01-7.49l-104.38-48.28l5.52,7.61
		c0.82,1.15,1.09,2.65,0.56,3.96c-0.79,1.93-2.84,2.9-4.75,2.38l-117.37-31.51c3.72,3.21,8.47,6.94,14.28,10.83
		c15.39,10.31,41.61,23.92,79.09,30.23c2.18,0.37,3.65,2.43,3.28,4.61c-0.36,2.18-2.43,3.65-4.6,3.28
		c-16.84-2.83-31.52-7.04-44.19-11.89c-4.17-0.85-31.56-6.49-56.36-13.36c7.29,5.53,16.97,11.91,28.91,17.71
		c24.74,12.01,51.4,17.94,79.2,17.65c0.02,0,0.03,0,0.05,0c2.18,0,3.97,1.76,3.99,3.96c0.03,2.2-1.74,4.02-3.95,4.04
		c-0.7,0.01-1.4,0.01-2.1,0.01c-17.59,0-33.51-2.37-47.67-6.11c-4.79-0.36-29.69-2.49-57.54-9.32
		c27.39,15.07,71.17,31.22,115.97,27.57c2.19-0.18,4.13,1.46,4.31,3.66c0.18,2.21-1.46,4.14-3.66,4.31
		c-4.53,0.37-9.02,0.54-13.45,0.54c-15.04,0-29.39-1.96-42.23-4.76c-2.87-0.06-27.06-0.66-54.99-4.14
		c31.43,14.25,76.44,24.3,122.75,15.04c2.17-0.44,4.28,0.97,4.71,3.14c0.43,2.16-0.97,4.27-3.14,4.7
		c-12.74,2.55-25.67,3.82-38.72,3.83c-5.33,0-10.69-0.24-16.05-0.67c-3.5,0.52-24.22,3.44-46.43,3.82
		c29.38,6.95,71.46,9.47,108.95-2.22c2.11-0.66,4.35,0.52,5.01,2.63c0.65,2.11-0.52,4.35-2.63,5.01c-19.25,6-39.71,8.39-59.18,8.39
		c-0.26,0-0.52-0.01-0.78-0.01c-2.48,1.07-11.09,4.44-25.56,6.95c37.13,3.44,69.54-2.85,88.07-12.3c1.97-1,4.38-0.22,5.38,1.75
		s0.22,4.38-1.75,5.38c-14.31,7.3-31.81,11.39-50.03,13.08c-2.33,1-11.71,4.99-22.09,8.64c41.87-1.32,84.87-19.7,85.38-19.93
		c2.03-0.87,4.38,0.06,5.26,2.09c0.88,2.02-0.05,4.38-2.08,5.26c-0.65,0.28-16.15,6.95-37.99,12.69c-2.34,0.62-4.65,1.2-6.94,1.74
		l-2.82,4.41c-0.64,1-0.2,1.87,0.02,2.2s0.86,1.07,2.03,0.86l13.54-2.43c1.65-0.29,3.31,0.47,4.16,1.91s0.71,3.26-0.35,4.56
		l-4.78,5.86c-0.81,0.99-0.38,1.95-0.17,2.31c0.22,0.36,0.87,1.18,2.12,0.94l12.16-2.37c1.65-0.32,3.33,0.42,4.2,1.87
		c0.86,1.44,0.73,3.27-0.33,4.58l-3.32,4.07c-0.84,1.03-0.37,2-0.12,2.37c0.24,0.37,0.94,1.2,2.22,0.84l11.62-3.24
		c1.61-0.45,3.33,0.15,4.32,1.5c0.98,1.36,1.01,3.18,0.09,4.57l-4.17,6.25c-0.72,1.08-0.19,1.99,0.07,2.34
		c0.27,0.34,1.01,1.1,2.24,0.69l10.46-3.49c1.54-0.51,3.25-0.04,4.3,1.2c1.06,1.24,1.26,2.99,0.51,4.44l-1.86,3.58
		c-0.59,1.15,0.03,1.99,0.32,2.31c0.3,0.31,1.11,0.98,2.28,0.46l7.99-3.52c1.53-0.68,3.32-0.33,4.48,0.87c1.17,1.2,1.46,3,0.74,4.51
		l-1.68,3.53c-0.52,1.07,0.03,1.88,0.29,2.18c0.26,0.3,0.98,0.96,2.12,0.61l9.05-2.83c1.32-0.41,2.76-0.11,3.81,0.79
		s1.55,2.28,1.34,3.65L251.246,324.494z M448.906,339.784c0.72,4.66-0.93,9.34-4.41,12.51l-12.33,11.24
		c-1.2,1.09-2.94,1.47-4.42,0.82c-1.87-0.82-2.78-2.87-2.25-4.76c0.28-0.97,0.51-1.97,0.4-2.98c-0.4-3.79-3.21-6.48-6.62-6.92
		l-17.69-2.28l17.26,17.27c1.2,1.2,1.65,3.03,0.96,4.58c-0.67,1.49-2.13,2.37-3.66,2.37c-0.4,0-0.81-0.06-1.22-0.19
		c-5.47-1.75-11.13-4.62-16.83-8.54c-11.84-8.15-26.1-11.76-40.15-10.17c-8.2,0.92-14.54,1.77-19.46,2.54
		c3.61,6.47,8.69,11.98,14.94,16.11c1.12,0.74,1.91,1.94,1.95,3.28c0.07,2.19-1.54,3.93-3.59,4.14l-16.68,1.72l26.7,12.48
		l14.18-8.02c1.72-0.97,3.88-0.54,5.11,1l13.07,16.52c1.37,1.73,1.24,4.3-0.46,5.71c-0.75,0.62-1.66,0.92-2.55,0.92
		c-1.18,0-2.35-0.52-3.14-1.52l-11.07-13.98l-11.93,6.74l-0.73,1.46h10.89c1.3,0,2.52,0.63,3.27,1.69l8.33,11.8
		c1.35,1.92,0.79,4.6-1.29,5.79c-1.81,1.04-4.14,0.39-5.34-1.31l-7.04-9.97h-12.07l-3.11,14.22h9.61c2.34,0,4.21,2.01,3.98,4.39
		c-0.19,2.08-2.06,3.61-4.15,3.61h-14.41c-1.7,0-3.27-1.08-3.83-2.82c-0.22-0.7-0.21-1.45-0.05-2.16l4.09-18.72l-27-10.17
		c-0.07-0.02-0.12-0.04-0.19-0.07l-17.54-7.66l-10.87,11.58c-0.77,0.83-1.84,1.26-2.92,1.26c-0.66,0-1.33-0.16-1.94-0.5
		c-1.39-0.77-2.14-2.34-2.04-3.92l1.71-27.46c-7.82,2.21-16.1,3.95-24.73,5.18c3.05,10.61,9.78,19.88,19.11,26.04
		c1.12,0.74,1.91,1.94,1.95,3.29c0.07,2.18-1.54,3.93-3.59,4.14l-16.68,1.71l26.71,12.48l14.17-8.02c1.72-0.97,3.89-0.54,5.11,1
		l13.08,16.52c1.37,1.73,1.23,4.3-0.47,5.71c-0.75,0.62-1.65,0.92-2.55,0.92c-1.18,0-2.35-0.52-3.14-1.52l-11.07-13.98l-11.93,6.74
		l-0.72,1.46h10.89c1.3,0,2.51,0.63,3.26,1.69l8.34,11.8c1.35,1.92,0.78,4.6-1.3,5.79c-1.81,1.04-4.14,0.39-5.34-1.31l-7.04-9.97
		h-12.07l-3.11,14.22h9.62c2.34,0,4.21,2.01,3.98,4.39c-0.2,2.08-2.07,3.61-4.16,3.61h-14.41c-1.7,0-3.27-1.08-3.82-2.82
		c-0.22-0.7-0.21-1.45-0.06-2.16l4.1-18.72l-27-10.17c0,0-0.13-0.05-0.19-0.07l-17.55-7.66l-10.86,11.58
		c-0.78,0.82-1.84,1.26-2.92,1.26c-0.54,0-1.08-0.11-1.59-0.33c-1.55-0.67-2.51-2.23-2.4-3.92l3.19-51.66
		c-16.09-0.51-32.98-2.54-50.32-6.05c-30.36,20.42-63.36,43.72-82.37,60.55c-0.74,0.65-1.68,1-2.65,1c-0.16,0-0.33-0.01-0.49-0.03
		c-46.52-5.72-75.33-52-76.53-53.96c-0.62-1.01-0.76-2.23-0.39-3.35c0.37-1.11,1.21-2.01,2.3-2.45l179.97-72.6
		c0.08-0.38,0.17-0.76,0.29-1.13l-1.81,0.51c-4.28,1.19-8.63-0.44-11.07-4.16c-1.54-2.36-2.01-5.07-1.44-7.63l-2.92,0.57
		c-4.19,0.82-8.31-1.02-10.51-4.68c-1.7-2.83-1.89-6.17-0.63-9.07l-3.49,0.63c-3.98,0.71-7.85-0.93-10.1-4.29
		c-1.78-2.67-2.15-5.86-1.15-8.76c-13.45,2.63-25.97,3.96-37.47,3.96c-7.45,0-14.48-0.56-21.06-1.67c-1.98-0.33-3.4-2.08-3.33-4.09
		c0.07-2,1.62-3.65,3.62-3.84c5.88-0.56,14.82-3.3,23.15-6.26c-17.76-0.28-35.18-2.51-50.08-6c-1.96-0.46-3.27-2.31-3.06-4.31
		c0.21-2.01,1.88-3.54,3.9-3.58c13.16-0.25,24.03-1.6,32.52-3.2c-23.88-2.5-44.36-8.18-56.45-14.22c-1.75-0.88-2.62-2.89-2.04-4.76
		c0.58-1.87,2.42-3.05,4.36-2.79c13.19,1.8,29.07,1.52,42.65,0.64c-1.58-0.36-3.17-0.73-4.76-1.13
		c-30.06-7.62-50.53-19.4-57.93-24.11c-1.62-1.03-2.28-3.05-1.58-4.84c0.7-1.78,2.56-2.82,4.44-2.47
		c14.94,2.71,30.15,4.46,43.06,5.57c-25.5-9.59-44.88-21.6-54.68-29.82c-1.48-1.25-1.86-3.38-0.9-5.06
		c0.96-1.68,2.99-2.43,4.82-1.77c15.98,5.71,33.02,9.56,47.41,12.1c-23.3-11.41-38.42-24.98-44.64-31.2
		c-1.32-1.31-1.55-3.36-0.58-4.93c0.98-1.58,2.91-2.28,4.67-1.7c12.17,4.06,27.31,8.03,40.73,11.26
		c-22.13-13.38-32.57-26.25-33.32-27.2c-1.08-1.35-1.16-3.24-0.21-4.68c0.94-1.44,2.71-2.12,4.38-1.67l121.05,32.5l-7.88-10.89
		c-0.91-1.25-1.12-2.92-0.41-4.29c1.02-1.96,3.33-2.69,5.24-1.81l17.76,8.22c-7.65-8.1-13.92-16.08-17.91-22.94
		c-0.99-1.69-0.6-3.85,0.9-5.1c1.51-1.24,3.7-1.22,5.18,0.07c10.04,8.73,23.45,17.17,35.28,23.88c-1.11-1.16-2.23-2.33-3.32-3.53
		c-20.97-22.85-31.64-43.92-35.25-51.92c-0.79-1.74-0.23-3.8,1.33-4.91s3.68-0.95,5.07,0.37c11.01,10.46,22.8,20.27,33,28.28
		c-16.08-22.01-25.74-42.69-29.43-54.94c-0.56-1.85,0.29-3.84,2.01-4.72c1.73-0.88,3.84-0.39,5.01,1.15
		c10.24,13.54,22.38,26.09,33.03,36.11c-13.24-22.31-18.46-41.95-20.25-50.56c-0.38-1.82,0.54-3.66,2.22-4.44
		c1.68-0.79,3.68-0.32,4.83,1.14c8,10.11,18.56,21.8,28.05,31.89c-11.36-23.62-13.02-40.22-13.11-41.16
		c-0.18-2.01,1.16-3.88,3.23-4.29c1.42-0.29,2.87,0.29,3.84,1.37l83.35,93.4l-0.63-13.42c-0.07-1.54,0.67-3.06,2.01-3.81
		c1.93-1.08,4.27-0.42,5.38,1.36l67.77,108.67l5.91,9.48c6.41,10.27,7.81,22.72,3.86,34.16c-3.96,11.44-12.76,20.36-24.14,24.48
		l-1.07,0.39c-9.88,3.58-16.99,11.9-19.06,22.06c14.16,8.48,37.72,19.94,76.75,33.96c4.24,1.51,7.09,5.56,7.09,10.07
		c0,0.35-0.01,0.69-0.04,1.03l12.78,5.92C445.206,331.164,448.186,335.124,448.906,339.784z M439.106,346.384
		c1.52-1.39,2.21-3.34,1.89-5.38c-0.31-2.03-1.56-3.69-3.43-4.55l-13.11-6.07c-2.3,1.97-5.38,2.88-8.43,2.46l-4.89,3.88
		c-2.25,1.77-4.97,2.7-7.73,2.7c-0.53,0-1.05-0.03-1.57-0.1c-0.88-0.11-1.74-0.32-2.6-0.62c-4.07-1.43-7.07-4.8-8.02-9.01
		l-1.53-6.72l-16.65-6.47c-2.06-0.8-3.09-3.11-2.29-5.17c0.8-2.06,3.12-3.08,5.18-2.28l40.57,15.73c1.27,0.49,2.71-0.03,3.35-1.22
		c0.02-0.02,0.03-0.04,0.04-0.06l0.03-0.05c0.01-0.04,0.03-0.08,0.04-0.11c0.16-0.34,0.23-0.71,0.23-1.1c0-0.94-0.55-2.1-1.78-2.54
		c-22.9-8.22-74.5-28.05-95.14-46.59c-7.38,34.87-7.44,60.19-0.16,77.1c6.41-1.79,17.79-3.61,33.95-5.43
		c12.76-1.45,25.67,0.89,37.19,6.6l-6.62-6.62c-1.21-1.21-1.51-3.05-0.76-4.59c0.68-1.38,2.08-2.23,3.59-2.23
		c0.17,0,0.34,0.01,0.52,0.03l10.85,1.4l18.48,2.39c4.58,0.59,8.64,3.16,11.13,7.06c0.64,1,1.15,2.05,1.54,3.14L439.106,346.384z
		 M406.166,330.444l0.92-0.72l-8.4-3.26l0.33,1.46c0.35,1.53,1.4,2.71,2.88,3.24C403.376,331.684,404.936,331.424,406.166,330.444z
		 M381.056,228.664c1.74-5.04,2.17-10.33,1.36-15.44c-1.6,5.83-4.68,11.96-10.55,16.21c-5.24,3.8-11.43,5.76-17.42,7.65
		c-9.33,2.95-18.15,5.73-22.98,15.16c-2.03,3.96-3.5,8.6-4.31,13.5c2.08,2.02,5.25,4.67,10.07,7.95
		c3.32-11.54,11.88-20.87,23.44-25.06l1.07-0.39C370.856,244.944,377.886,237.814,381.056,228.664z M367.176,222.964
		c9.27-6.72,8.99-21.26,8.76-24.87l-63.55-101.89l0.44,9.4c0.06,1.33-0.46,2.66-1.53,3.47c-1.73,1.32-4.08,1.04-5.44-0.49
		l-80.92-90.67c0.48,1.65,1.02,3.43,1.65,5.31c3.65,11.02,10.88,28.15,24.54,47.14c8.33,11.58,18.2,22.68,29.33,32.99
		c1.41,1.3,1.81,3.42,0.82,5.06c-1.37,2.24-4.34,2.58-6.16,0.89c-11.47-10.61-21.65-22.05-30.27-33.99
		c-2.34-2.3-22.65-22.47-40-42.23c3.06,8.62,7.67,19.26,14.48,30.65c14.11,23.6,33.14,43.17,56.58,58.17
		c1.86,1.19,2.4,3.67,1.21,5.53c-0.76,1.19-2.06,1.84-3.37,1.84c-0.74,0-1.49-0.2-2.16-0.63c-15.51-9.93-28.07-21.04-38.25-32.35
		c-3.74-2.87-23.46-18.33-43.06-39.35c14.66,27.62,42.43,65.11,81.9,86.61c1.94,1.06,2.65,3.49,1.6,5.43
		c-0.73,1.33-2.1,2.09-3.52,2.09c-0.64,0-1.3-0.16-1.91-0.49c-17.52-9.55-32.32-21.9-44.24-34.04
		c-2.28-1.56-22.23-15.33-43.75-33.61c18.49,29.15,50.63,62.22,94.44,79.85c2.05,0.83,3.05,3.16,2.22,5.21
		c-0.53,1.33-1.71,2.21-3.02,2.44l11.89,5.5c11.79,5.45,20.13,16.16,22.51,29.07c2.04,11.14-0.98,22.61-7.77,31.67
		c-4.93,6.56-7.21,14.83-5.87,22.92c1.77,10.74,8.92,19.27,18.52,23.04c1.05-5.94,2.32-12.16,3.84-18.68
		c0.33-1.43,1.42-2.55,2.83-2.94c1-4.45,2.49-8.68,4.4-12.42c6.36-12.4,17.69-15.98,27.69-19.14
		C357.666,227.674,362.986,225.994,367.176,222.964z M355.856,400.814l0.71-1.43l-25.61-11.97l0.38,4.17L355.856,400.814z
		 M325.626,373.464l15.62-1.61c-4.52-4.35-8.25-9.45-11.06-15.11l-0.11,0.02c-3.72,0.77-7.27,2.11-10.59,3.94
		c-3.66,2.02-9.97,5.11-18.94,8.17l-1.22,19.59l5.21-5.54c1.15-1.23,2.96-1.61,4.51-0.93l13.94,6.08l-0.93-10.27
		C321.856,375.624,323.446,373.684,325.626,373.464z M311.616,293.204c0.12-0.83,0.24-1.68,0.36-2.53
		c-10.8-3.68-19.38-12-23.32-22.87c-4.36-12.03-2.38-25.34,5.3-35.58l0.7-0.93c5.81-7.74,7.78-17.56,5.41-26.95
		c-1.31-5.18-3.85-9.85-7.34-13.68c1.87,5.76,2.66,12.59,0.08,19.37c-2.3,6.04-6.41,11.07-10.38,15.93
		c-6.19,7.58-12.04,14.74-10.91,25.27C273.236,267.264,286.766,290.044,311.616,293.204z M315.846,353.574
		c-5.67-13.09-7.39-30.43-5.17-52.42c-1.93-0.24-3.78-0.58-5.56-1l-29.69,32.93c-1.94,2.15-4.64,3.31-7.42,3.31
		c-1.13,0-2.28-0.19-3.38-0.59c-1.88-0.67-3.46-1.85-4.61-3.36l-1.74,1.01c-3.37,1.97-7.47,1.82-10.69-0.38
		c-1.58-1.08-2.76-2.55-3.5-4.21c-6.65,4.18-30.3,19.11-57.73,37.37c14.21,2.52,28.06,4.01,41.33,4.42l0.61-9.97
		c0.14-2.21,2.03-3.91,4.24-3.75c2.21,0.14,3.88,2.04,3.75,4.24l-3.62,58.55l5.2-5.55c1.16-1.23,2.97-1.6,4.52-0.93l13.93,6.08
		l-0.93-10.28c-0.19-2.18,1.4-4.11,3.58-4.34l15.62-1.6c-8.76-8.43-14.54-19.62-16.24-31.84l-3.02-21.58
		c-0.3-2.19,1.22-4.21,3.41-4.51c2.19-0.3,4.21,1.22,4.51,3.4l2.82,20.16c10.43-1.46,20.31-3.67,29.43-6.6
		C305.556,358.884,312.326,355.534,315.846,353.574z M289.186,432.064l0.72-1.43l-25.61-11.97l0.37,4.17L289.186,432.064z
		 M199.916,136.174l45.63,21.1c-7.36-4.33-14.48-9.16-21.33-14.46c-3.31-1.54-22.03-10.36-40.66-22.1
		C188.486,125.894,194.026,131.134,199.916,136.174z M230.326,328.104c-0.47-0.38-0.93-0.79-1.34-1.27
		c-0.68-0.78-1.22-1.64-1.62-2.54l-74.06,40.37c3.47,2.48,7.55,4.52,12.33,5.86C191.566,352.934,216.426,336.944,230.326,328.104z
		 M146.946,359.024l70.24-38.29c-0.75-0.46-1.45-1.03-2.08-1.7c-0.72-0.77-1.3-1.62-1.74-2.52l-72.01,35.02
		C142.886,354.074,144.736,356.624,146.946,359.024z M137.726,344.404l64.9-31.57c-1.54-0.66-2.92-1.72-4.01-3.15
		c-0.02-0.02-0.03-0.04-0.05-0.06l-63.84,25.75C135.266,337.584,136.196,340.784,137.726,344.404z M157.436,376.114
		c-4.55-1.94-8.46-4.44-11.81-7.26l-84.45,46.04c8.66,5.25,18.53,9.41,29.4,11.03C106.816,411.774,132.136,393.474,157.436,376.114z
		 M53.676,409.874l86.05-46.92c-2.18-2.58-4.03-5.26-5.58-7.92l-92.33,44.9C45.356,403.294,49.326,406.684,53.676,409.874z
		 M35.856,393.934l94.68-46.04c-1.58-3.66-2.62-6.97-3.29-9.5l-102.92,41.51C26.696,383.224,30.616,388.314,35.856,393.934z"/>
</g>
<g>
</g>
<g>
</g>
<g>
</g>
<g>
</g>
<g>
</g>
<g>
</g>
<g>
</g>
<g>
</g>
<g>
</g>
<g>
</g>
<g>
</g>
<g>
</g>
<g>
</g>
<g>
</g>
<g>
</g>
</svg>
