<svg id="Capa_1" enable-background="new 0 0 512 512" height="512" viewBox="0 0 512 512" width="512" xmlns="http://www.w3.org/2000/svg"><g><g><path d="m347.797 363.052c-7.781 0-12.182 6.841-14.065 9.768l-18.21 28.344c-8.024 12.488-5.53 21.114-3.329 25.144 1.955 3.581 6.973 9.589 18.602 9.589h34.003c11.63 0 16.648-6.008 18.603-9.59 2.201-4.031 4.694-12.656-3.33-25.143l-18.212-28.35c-1.878-2.921-6.279-9.762-14.062-9.762zm17.002 52.811h-34.003c-.137 0-.265-.002-.387-.006.328-.939 17.389-27.869 17.389-27.869s17.062 26.93 17.389 27.869c-.122.004-.251.006-.388.006z"/><path d="m461.429 313.184c0-27.122-22.105-49.188-49.275-49.188-27.155 0-49.247 22.066-49.247 49.188s22.092 49.188 49.247 49.188c27.17 0 49.275-22.065 49.275-49.188zm-78.489 0c0-16.076 13.106-29.155 29.214-29.155 16.124 0 29.242 13.079 29.242 29.155s-13.117 29.155-29.242 29.155c-16.108 0-29.214-13.079-29.214-29.155z"/><path d="m179.383 200.753c-1.879-2.932-6.279-9.799-14.072-9.799-7.794 0-12.194 6.867-14.066 9.789l-18.21 28.344c-8.019 12.482-5.53 21.097-3.332 25.122 1.954 3.579 6.97 9.583 18.605 9.583h34.003c11.635 0 16.651-6.005 18.606-9.584 2.198-4.025 4.687-12.64-3.333-25.121zm-31.452 43c.329-.936 17.379-27.841 17.379-27.841s17.052 26.906 17.38 27.841c-.119.004-34.641.004-34.759 0z"/><path d="m511.113 345.357c-.484-34.788-8.493-65.917-23.805-92.525-2.757-4.794-8.882-6.446-13.677-3.686-4.795 2.759-6.445 8.883-3.686 13.678 13.589 23.614 20.7 51.476 21.136 82.81.349 25.258-6.531 37.531-13.815 50.525-7.342 13.098-14.935 26.642-14.935 51.034 0 4.729-3.867 8.577-8.619 8.577h-25.708c-5.532 0-10.017 4.484-10.017 10.017v17.29c0 8.86-5.952 8.86-7.912 8.86l-12.421.006v-23.804c0-5.532-4.485-10.017-10.017-10.017s-10.017 4.484-10.017 10.017v23.813l-20.362.009v-23.822c0-5.532-4.485-10.017-10.017-10.017s-10.017 4.484-10.017 10.017v23.822l-20.362-.009v-23.813c0-5.532-4.485-10.017-10.017-10.017s-10.017 4.484-10.017 10.017v23.804l-12.454-.006c-1.955 0-7.908 0-7.908-8.86v-17.29c0-5.532-4.485-10.017-10.017-10.017h-25.68c-4.768 0-8.647-3.848-8.647-8.577 0-24.39-7.585-37.933-14.919-51.03-7.278-12.995-14.151-25.269-13.802-50.561.02-1.874.079-3.778.158-5.708h24.029c4.349 0 8.347-.838 11.882-2.374 8.559 15.012 24.692 24.851 42.829 24.851 27.171 0 49.276-22.066 49.276-49.188 0-20.498-12.76-38.569-31.347-45.815 1.33-14.379 6.337-23.352 12.02-33.49 5.889-10.506 12.366-22.063 15.078-40.046 6.545-.996 13.216-1.576 19.915-1.722 21.439.458 42.811 5.489 61.816 14.555 1.392.664 2.86.978 4.306.978 3.741 0 7.329-2.105 9.047-5.707 2.382-4.993.265-10.971-4.728-13.353-21.62-10.312-45.91-16.02-70.244-16.506-.137-.003-.27-.003-.405 0-6.174.126-12.331.585-18.413 1.354-.001-.052 0-.102-.001-.153-.737-52.42-18.733-96.827-52.043-128.421-29.6-28.074-69.241-44.004-111.625-44.856-.135-.003-.268-.003-.403 0-42.38.853-82.025 16.782-111.628 44.856-33.317 31.597-51.31 76.006-52.033 128.425-.424 30.635 8.491 46.552 16.354 60.595 6.635 11.848 12.365 22.079 12.365 41.242 0 15.776 12.866 28.61 28.68 28.61h15.664v7.273c0 17.012 11.49 28.894 27.941 28.894h81.625c-.069 1.842-.122 3.666-.141 5.463-.424 30.635 8.491 46.552 16.354 60.595 6.635 11.848 12.365 22.079 12.365 41.242 0 15.776 12.866 28.61 28.68 28.61h15.664v7.274c0 17.012 11.49 28.893 27.936 28.893l62.875.027 62.832-.028c16.451 0 27.941-11.881 27.941-28.893v-7.274h15.692c15.799 0 28.652-12.835 28.652-28.61 0-19.16 5.735-29.392 12.376-41.238 7.871-14.045 16.794-29.962 16.371-60.6zm-199.566-32.173c0 16.076-13.118 29.155-29.243 29.155-13.289 0-24.771-8.88-28.21-21.452.936-3.034 1.439-6.347 1.439-9.885v-7.273h15.692c11.2 0 20.914-6.454 25.623-15.83 8.872 5.081 14.699 14.628 14.699 25.285zm-116.413-17.12v23.798h-20.362v-23.798c0-5.532-4.485-10.017-10.017-10.017s-10.017 4.484-10.017 10.017v23.798h-20.362v-23.798c0-5.532-4.485-10.017-10.017-10.017s-10.017 4.484-10.017 10.017v23.798h-12.454c-1.955 0-7.908 0-7.908-8.861v-17.29c0-5.532-4.485-10.017-10.017-10.017h-25.68c-4.768 0-8.647-3.848-8.647-8.577 0-24.39-7.585-37.933-14.919-51.03-7.278-12.995-14.151-25.269-13.802-50.53 1.43-103.422 75.523-152.057 143.841-153.522 68.298 1.464 142.384 50.1 143.838 153.523.349 25.258-6.531 37.531-13.815 50.525-7.342 13.098-14.935 26.642-14.935 51.034 0 4.729-3.867 8.577-8.619 8.577h-25.708c-5.532 0-10.017 4.484-10.017 10.017v17.29c0 8.861-5.952 8.861-7.908 8.861h-12.426v-23.798c0-5.532-4.485-10.017-10.017-10.017s-10.015 4.485-10.015 10.017z"/><path d="m199.782 178.581c9.645 9.322 22.617 14.008 35.305 14.008 12.199 0 24.134-4.333 32.589-13.043 7.964-8.205 12.243-19.469 12.047-31.715-.217-13.561-5.808-26.623-15.342-35.835-18.145-17.534-52.117-36.448-71.354-16.674-.004.005-.009.009-.014.014-9.161 9.457-10.879 23.887-10.706 34.327.268 16.202 5.775 37.612 17.475 48.918zm7.613-69.299c7.04-7.219 28.539 3.081 43.065 17.119 5.651 5.461 9.102 13.592 9.232 21.75.111 6.888-2.16 13.083-6.391 17.442-9.66 9.952-28.535 9.276-39.598-1.416-6.252-6.041-11.137-21.021-11.365-34.845-.151-9.123 1.74-16.617 5.057-20.05z"/><path d="m147.197 129.675c.172-10.446-1.55-24.886-10.734-34.346-19.239-19.821-53.204-.887-71.326 16.66-9.551 9.212-15.153 22.275-15.369 35.838-.196 12.252 4.093 23.519 12.061 31.712 8.457 8.729 20.39 13.07 32.589 13.069 12.678-.001 25.645-4.692 35.277-14.019 11.72-11.304 17.235-32.712 17.502-48.914zm-20.03-.331c-.228 13.817-5.12 28.788-11.394 34.839-11.052 10.702-29.906 11.377-39.568 1.402-4.241-4.36-6.516-10.554-6.406-17.439.13-8.154 3.587-16.28 9.26-21.753 11.225-10.869 26.619-19.495 36.272-19.495 2.828 0 5.165.741 6.757 2.382 3.331 3.433 5.23 10.933 5.079 20.064z"/><path d="m449.709 231.933c2.564 0 5.127-.978 7.083-2.934 3.912-3.912 3.912-10.254 0-14.166l-.028-.028c-3.912-3.911-10.24-3.898-14.151.014-3.912 3.912-3.898 10.268.014 14.18 1.955 1.956 4.518 2.934 7.082 2.934z"/></g></g></svg>